<svg width="31" height="27" viewBox="0 0 31 27" fill="none" xmlns="http://www.w3.org/2000/svg">
<path fill-rule="evenodd" clip-rule="evenodd" d="M5.91439 12.8381C5.91439 8.29375 9.60979 4.59938 14.1531 4.59938C18.6953 4.59938 22.3907 8.29375 22.3907 12.8381C22.3907 17.3824 18.6953 21.0767 14.1531 21.0767C9.60979 21.0767 5.91439 17.3824 5.91439 12.8381ZM21.1209 19.0319C22.5909 17.3803 23.4891 15.2144 23.4891 12.8381C23.4891 7.68914 19.2999 3.5 14.1531 3.5C9.00621 3.5 4.81604 7.68914 4.81604 12.8381C4.81604 17.987 9.00621 22.1761 14.1531 22.1761C16.5294 22.1761 18.6953 21.2738 20.3439 19.808L24.8758 24.3399C24.9846 24.4466 25.1252 24.5 25.2658 24.5C25.4054 24.5 25.5461 24.4466 25.6528 24.3399C25.8674 24.1253 25.8674 23.7784 25.6528 23.5638L21.1209 19.0319Z" fill="black" stroke="black" stroke-width="0.2"/>
</svg>
